<svg width="1200" height="630" viewBox="0 0 1200 630" fill="none" xmlns="http://www.w3.org/2000/svg">
  <rect width="1200" height="630" fill="#F5F0E4"/>
  <circle cx="1058" cy="-15" r="240" fill="#DDE8DE"/>
  <circle cx="1120" cy="582" r="190" fill="#F2D6C8"/>
  <path d="M755 480C842 258 939 174 1110 116" stroke="#23372E" stroke-width="8" stroke-linecap="round"/>
  <path d="M755 480C842 258 939 174 1110 116" stroke="#FFF9EE" stroke-width="3" stroke-dasharray="3 18" stroke-linecap="round"/>
  <circle cx="755" cy="480" r="35" fill="#D97954" stroke="#FFF9EE" stroke-width="9"/>
  <circle cx="914" cy="247" r="30" fill="#B48A35" stroke="#FFF9EE" stroke-width="9"/>
  <circle cx="1110" cy="116" r="35" fill="#437C69" stroke="#FFF9EE" stroke-width="9"/>
  <text x="82" y="106" fill="#437C69" font-family="Arial, Helvetica, sans-serif" font-size="25" font-weight="700" letter-spacing="4">FRONTIER MAX</text>
  <text x="82" y="235" fill="#1E2D26" font-family="Arial, Helvetica, sans-serif" font-size="82" font-weight="700" letter-spacing="-4">From benchmark</text>
  <text x="82" y="325" fill="#1E2D26" font-family="Arial, Helvetica, sans-serif" font-size="82" font-weight="700" font-style="italic" letter-spacing="-4">to runtime.</text>
  <text x="86" y="392" fill="#5A665F" font-family="Arial, Helvetica, sans-serif" font-size="29">Interpret the evidence. Make the policy explicit.</text>
  <g transform="translate(84 469)">
    <rect width="140" height="52" rx="26" fill="#FFF9EE" stroke="#D8D0C1"/>
    <text x="70" y="34" text-anchor="middle" fill="#405047" font-family="Arial, Helvetica, sans-serif" font-size="19" font-weight="700">QUALITY</text>
    <rect x="154" width="112" height="52" rx="26" fill="#FFF9EE" stroke="#D8D0C1"/>
    <text x="210" y="34" text-anchor="middle" fill="#405047" font-family="Arial, Helvetica, sans-serif" font-size="19" font-weight="700">COST</text>
    <rect x="280" width="142" height="52" rx="26" fill="#FFF9EE" stroke="#D8D0C1"/>
    <text x="351" y="34" text-anchor="middle" fill="#405047" font-family="Arial, Helvetica, sans-serif" font-size="19" font-weight="700">LATENCY</text>
    <rect x="436" width="132" height="52" rx="26" fill="#FFF9EE" stroke="#D8D0C1"/>
    <text x="502" y="34" text-anchor="middle" fill="#405047" font-family="Arial, Helvetica, sans-serif" font-size="19" font-weight="700">CONTEXT</text>
  </g>
</svg>
